<?xml version="1.0" encoding="UTF-8" standalone="no"?>
<!DOCTYPE svg PUBLIC "-//W3C//DTD SVG 1.1//EN"
 "http://www.w3.org/Graphics/SVG/1.1/DTD/svg11.dtd">
<!-- Generated by graphviz version 2.40.1 (20161225.0304)
 -->
<!-- Title: G Pages: 1 -->
<svg width="1002pt" height="188pt"
 viewBox="0.00 0.00 1002.28 188.00" xmlns="http://www.w3.org/2000/svg" xmlns:xlink="http://www.w3.org/1999/xlink">
<g id="graph0" class="graph" transform="scale(1 1) rotate(0) translate(4 184)">
<title>G</title>
<polygon fill="#ffffff" stroke="transparent" points="-4,4 -4,-184 998.2802,-184 998.2802,4 -4,4"/>
<!-- n2 -->
<g id="node1" class="node">
<title>n2</title>
<ellipse fill="none" stroke="#00ff00" cx="59.7175" cy="-162" rx="59.9357" ry="18"/>
<text text-anchor="middle" x="59.7175" y="-157.8" font-family="Times,serif" font-size="14.00" fill="#000000">GNUmakefile</text>
</g>
<!-- n3 -->
<g id="node2" class="node">
<title>n3</title>
<ellipse fill="none" stroke="#ff0000" cx="540.7175" cy="-18" rx="27" ry="18"/>
<text text-anchor="middle" x="540.7175" y="-13.8" font-family="Times,serif" font-size="14.00" fill="#000000">all</text>
</g>
<!-- n4 -->
<g id="node3" class="node">
<title>n4</title>
<ellipse fill="none" stroke="#ff0000" cx="448.7175" cy="-90" rx="37.7352" ry="18"/>
<text text-anchor="middle" x="448.7175" y="-85.8" font-family="Times,serif" font-size="14.00" fill="#000000">bubbles</text>
</g>
<!-- n4&#45;&gt;n3 -->
<g id="edge1" class="edge">
<title>n4&#45;&gt;n3</title>
<path fill="none" stroke="#000000" d="M468.6801,-74.3771C482.1983,-63.7976 500.1898,-49.7173 514.8107,-38.2749"/>
<polygon fill="#000000" stroke="#000000" points="517.2524,-40.8084 522.9704,-31.889 512.9383,-35.2958 517.2524,-40.8084"/>
</g>
<!-- n8 -->
<g id="node4" class="node">
<title>n8</title>
<ellipse fill="none" stroke="#ff0000" cx="718.7175" cy="-90" rx="36.2992" ry="18"/>
<text text-anchor="middle" x="718.7175" y="-85.8" font-family="Times,serif" font-size="14.00" fill="#000000">options</text>
</g>
<!-- n8&#45;&gt;n3 -->
<g id="edge2" class="edge">
<title>n8&#45;&gt;n3</title>
<path fill="none" stroke="#000000" d="M690.5128,-78.5914C658.6605,-65.7073 606.9073,-44.7734 573.3407,-31.1959"/>
<polygon fill="#000000" stroke="#000000" points="574.5514,-27.9102 563.9686,-27.4049 571.9265,-34.3994 574.5514,-27.9102"/>
</g>
<!-- n5 -->
<g id="node5" class="node">
<title>n5</title>
<ellipse fill="none" stroke="#00ff00" cx="200.7175" cy="-162" rx="63.3017" ry="18"/>
<text text-anchor="middle" x="200.7175" y="-157.8" font-family="Times,serif" font-size="14.00" fill="#000000">src/bubbles.tex</text>
</g>
<!-- n5&#45;&gt;n4 -->
<g id="edge3" class="edge">
<title>n5&#45;&gt;n4</title>
<path fill="none" stroke="#000000" d="M245.0549,-149.1278C290.778,-135.8534 361.5611,-115.3035 406.4931,-102.2587"/>
<polygon fill="#000000" stroke="#000000" points="407.5945,-105.5835 416.2221,-99.4341 405.6428,-98.8611 407.5945,-105.5835"/>
</g>
<!-- n9 -->
<g id="node6" class="node">
<title>n9</title>
<ellipse fill="none" stroke="#00ff00" cx="718.7175" cy="-162" rx="94.1888" ry="18"/>
<text text-anchor="middle" x="718.7175" y="-157.8" font-family="Times,serif" font-size="14.00" fill="#000000">src/options_forward.tex</text>
</g>
<!-- n9&#45;&gt;n8 -->
<g id="edge6" class="edge">
<title>n9&#45;&gt;n8</title>
<path fill="none" stroke="#000000" d="M718.7175,-143.8314C718.7175,-136.131 718.7175,-126.9743 718.7175,-118.4166"/>
<polygon fill="#000000" stroke="#000000" points="722.2176,-118.4132 718.7175,-108.4133 715.2176,-118.4133 722.2176,-118.4132"/>
</g>
<!-- n6 -->
<g id="node7" class="node">
<title>n6</title>
<ellipse fill="none" stroke="#00ff00" cx="362.7175" cy="-162" rx="81.1669" ry="18"/>
<text text-anchor="middle" x="362.7175" y="-157.8" font-family="Times,serif" font-size="14.00" fill="#000000">src/tikz_bubbles.tex</text>
</g>
<!-- n6&#45;&gt;n4 -->
<g id="edge4" class="edge">
<title>n6&#45;&gt;n4</title>
<path fill="none" stroke="#000000" d="M383.5357,-144.5708C395.1167,-134.875 409.6539,-122.7044 422.0593,-112.3185"/>
<polygon fill="#000000" stroke="#000000" points="424.4302,-114.8982 429.851,-105.7951 419.9366,-109.5309 424.4302,-114.8982"/>
</g>
<!-- n10 -->
<g id="node8" class="node">
<title>n10</title>
<ellipse fill="none" stroke="#00ff00" cx="912.7175" cy="-162" rx="81.6255" ry="18"/>
<text text-anchor="middle" x="912.7175" y="-157.8" font-family="Times,serif" font-size="14.00" fill="#000000">src/tikz_forward.tex</text>
</g>
<!-- n10&#45;&gt;n8 -->
<g id="edge7" class="edge">
<title>n10&#45;&gt;n8</title>
<path fill="none" stroke="#000000" d="M870.6223,-146.3771C836.992,-133.8957 790.2327,-116.5417 757.5048,-104.3953"/>
<polygon fill="#000000" stroke="#000000" points="758.4214,-101.0023 747.8284,-100.8041 755.9858,-107.5649 758.4214,-101.0023"/>
</g>
<!-- n7 -->
<g id="node9" class="node">
<title>n7</title>
<ellipse fill="none" stroke="#00ff00" cx="533.7175" cy="-162" rx="72.4807" ry="18"/>
<text text-anchor="middle" x="533.7175" y="-157.8" font-family="Times,serif" font-size="14.00" fill="#000000">src/tikzpeople.sty</text>
</g>
<!-- n7&#45;&gt;n4 -->
<g id="edge5" class="edge">
<title>n7&#45;&gt;n4</title>
<path fill="none" stroke="#000000" d="M513.1413,-144.5708C501.6949,-134.875 487.3268,-122.7044 475.0657,-112.3185"/>
<polygon fill="#000000" stroke="#000000" points="477.2572,-109.588 467.3645,-105.7951 472.7328,-114.9293 477.2572,-109.588"/>
</g>
</g>
</svg>
