<?xml version="1.0" encoding="UTF-8" standalone="no"?>
<!DOCTYPE svg PUBLIC "-//W3C//DTD SVG 1.1//EN"
 "http://www.w3.org/Graphics/SVG/1.1/DTD/svg11.dtd">
<!-- Generated by graphviz version 2.40.1 (20161225.0304)
 -->
<!-- Title: G Pages: 1 -->
<svg width="614pt" height="188pt"
 viewBox="0.00 0.00 613.96 188.00" xmlns="http://www.w3.org/2000/svg" xmlns:xlink="http://www.w3.org/1999/xlink">
<g id="graph0" class="graph" transform="scale(1 1) rotate(0) translate(4 184)">
<title>G</title>
<polygon fill="#ffffff" stroke="transparent" points="-4,4 -4,-184 609.9574,-184 609.9574,4 -4,4"/>
<!-- n2 -->
<g id="node1" class="node">
<title>n2</title>
<ellipse fill="none" stroke="#00ff00" cx="59.7175" cy="-162" rx="59.9357" ry="18"/>
<text text-anchor="middle" x="59.7175" y="-157.8" font-family="Times,serif" font-size="14.00" fill="#000000">GNUmakefile</text>
</g>
<!-- n3 -->
<g id="node2" class="node">
<title>n3</title>
<ellipse fill="none" stroke="#ff0000" cx="362.7175" cy="-18" rx="27" ry="18"/>
<text text-anchor="middle" x="362.7175" y="-13.8" font-family="Times,serif" font-size="14.00" fill="#000000">all</text>
</g>
<!-- n4 -->
<g id="node3" class="node">
<title>n4</title>
<ellipse fill="none" stroke="#ff0000" cx="362.7175" cy="-90" rx="37.7352" ry="18"/>
<text text-anchor="middle" x="362.7175" y="-85.8" font-family="Times,serif" font-size="14.00" fill="#000000">bubbles</text>
</g>
<!-- n4&#45;&gt;n3 -->
<g id="edge1" class="edge">
<title>n4&#45;&gt;n3</title>
<path fill="none" stroke="#000000" d="M362.7175,-71.8314C362.7175,-64.131 362.7175,-54.9743 362.7175,-46.4166"/>
<polygon fill="#000000" stroke="#000000" points="366.2176,-46.4132 362.7175,-36.4133 359.2176,-46.4133 366.2176,-46.4132"/>
</g>
<!-- n5 -->
<g id="node4" class="node">
<title>n5</title>
<ellipse fill="none" stroke="#00ff00" cx="200.7175" cy="-162" rx="63.3017" ry="18"/>
<text text-anchor="middle" x="200.7175" y="-157.8" font-family="Times,serif" font-size="14.00" fill="#000000">src/bubbles.tex</text>
</g>
<!-- n5&#45;&gt;n4 -->
<g id="edge2" class="edge">
<title>n5&#45;&gt;n4</title>
<path fill="none" stroke="#000000" d="M235.0735,-146.7307C261.743,-134.8776 298.6462,-118.4761 325.916,-106.3562"/>
<polygon fill="#000000" stroke="#000000" points="327.4108,-109.522 335.1274,-102.2623 324.5678,-103.1254 327.4108,-109.522"/>
</g>
<!-- n6 -->
<g id="node5" class="node">
<title>n6</title>
<ellipse fill="none" stroke="#00ff00" cx="362.7175" cy="-162" rx="81.1669" ry="18"/>
<text text-anchor="middle" x="362.7175" y="-157.8" font-family="Times,serif" font-size="14.00" fill="#000000">src/tikz_bubbles.tex</text>
</g>
<!-- n6&#45;&gt;n4 -->
<g id="edge3" class="edge">
<title>n6&#45;&gt;n4</title>
<path fill="none" stroke="#000000" d="M362.7175,-143.8314C362.7175,-136.131 362.7175,-126.9743 362.7175,-118.4166"/>
<polygon fill="#000000" stroke="#000000" points="366.2176,-118.4132 362.7175,-108.4133 359.2176,-118.4133 366.2176,-118.4132"/>
</g>
<!-- n7 -->
<g id="node6" class="node">
<title>n7</title>
<ellipse fill="none" stroke="#00ff00" cx="533.7175" cy="-162" rx="72.4807" ry="18"/>
<text text-anchor="middle" x="533.7175" y="-157.8" font-family="Times,serif" font-size="14.00" fill="#000000">src/tikzpeople.sty</text>
</g>
<!-- n7&#45;&gt;n4 -->
<g id="edge4" class="edge">
<title>n7&#45;&gt;n4</title>
<path fill="none" stroke="#000000" d="M496.613,-146.3771C468.1078,-134.3749 428.9017,-117.8671 400.2822,-105.8167"/>
<polygon fill="#000000" stroke="#000000" points="401.5876,-102.5688 391.0131,-101.9139 398.8712,-109.0203 401.5876,-102.5688"/>
</g>
</g>
</svg>
