<?xml version="1.0" encoding="UTF-8" standalone="no"?>
<!DOCTYPE svg PUBLIC "-//W3C//DTD SVG 1.1//EN"
 "http://www.w3.org/Graphics/SVG/1.1/DTD/svg11.dtd">
<!-- Generated by graphviz version 2.40.1 (20161225.0304)
 -->
<!-- Title: G Pages: 1 -->
<svg width="1832pt" height="188pt"
 viewBox="0.00 0.00 1832.28 188.00" xmlns="http://www.w3.org/2000/svg" xmlns:xlink="http://www.w3.org/1999/xlink">
<g id="graph0" class="graph" transform="scale(1 1) rotate(0) translate(4 184)">
<title>G</title>
<polygon fill="#ffffff" stroke="transparent" points="-4,4 -4,-184 1828.2802,-184 1828.2802,4 -4,4"/>
<!-- n2 -->
<g id="node1" class="node">
<title>n2</title>
<ellipse fill="none" stroke="#00ff00" cx="59.7175" cy="-162" rx="59.9357" ry="18"/>
<text text-anchor="middle" x="59.7175" y="-157.8" font-family="Times,serif" font-size="14.00" fill="#000000">GNUmakefile</text>
</g>
<!-- n3 -->
<g id="node2" class="node">
<title>n3</title>
<ellipse fill="none" stroke="#ff0000" cx="1065.7175" cy="-18" rx="27" ry="18"/>
<text text-anchor="middle" x="1065.7175" y="-13.8" font-family="Times,serif" font-size="14.00" fill="#000000">all</text>
</g>
<!-- n4 -->
<g id="node3" class="node">
<title>n4</title>
<ellipse fill="none" stroke="#ff0000" cx="448.7175" cy="-90" rx="37.7352" ry="18"/>
<text text-anchor="middle" x="448.7175" y="-85.8" font-family="Times,serif" font-size="14.00" fill="#000000">bubbles</text>
</g>
<!-- n4&#45;&gt;n3 -->
<g id="edge1" class="edge">
<title>n4&#45;&gt;n3</title>
<path fill="none" stroke="#000000" d="M485.4659,-85.7117C595.0581,-72.923 918.8046,-35.1438 1028.7203,-22.3173"/>
<polygon fill="#000000" stroke="#000000" points="1029.4467,-25.7564 1038.9736,-21.1208 1028.6353,-18.8036 1029.4467,-25.7564"/>
</g>
<!-- n11 -->
<g id="node4" class="node">
<title>n11</title>
<ellipse fill="none" stroke="#ff0000" cx="1065.7175" cy="-90" rx="52.2106" ry="18"/>
<text text-anchor="middle" x="1065.7175" y="-85.8" font-family="Times,serif" font-size="14.00" fill="#000000">investments</text>
</g>
<!-- n11&#45;&gt;n3 -->
<g id="edge2" class="edge">
<title>n11&#45;&gt;n3</title>
<path fill="none" stroke="#000000" d="M1065.7175,-71.8314C1065.7175,-64.131 1065.7175,-54.9743 1065.7175,-46.4166"/>
<polygon fill="#000000" stroke="#000000" points="1069.2176,-46.4132 1065.7175,-36.4133 1062.2176,-46.4133 1069.2176,-46.4132"/>
</g>
<!-- n8 -->
<g id="node5" class="node">
<title>n8</title>
<ellipse fill="none" stroke="#ff0000" cx="1548.7175" cy="-90" rx="36.2992" ry="18"/>
<text text-anchor="middle" x="1548.7175" y="-85.8" font-family="Times,serif" font-size="14.00" fill="#000000">options</text>
</g>
<!-- n8&#45;&gt;n3 -->
<g id="edge3" class="edge">
<title>n8&#45;&gt;n3</title>
<path fill="none" stroke="#000000" d="M1513.9813,-84.8219C1425.5534,-71.6401 1192.5503,-36.9068 1102.2249,-23.4421"/>
<polygon fill="#000000" stroke="#000000" points="1102.5915,-19.9582 1092.1847,-21.9454 1101.5594,-26.8817 1102.5915,-19.9582"/>
</g>
<!-- n5 -->
<g id="node6" class="node">
<title>n5</title>
<ellipse fill="none" stroke="#00ff00" cx="200.7175" cy="-162" rx="63.3017" ry="18"/>
<text text-anchor="middle" x="200.7175" y="-157.8" font-family="Times,serif" font-size="14.00" fill="#000000">src/bubbles.tex</text>
</g>
<!-- n5&#45;&gt;n4 -->
<g id="edge4" class="edge">
<title>n5&#45;&gt;n4</title>
<path fill="none" stroke="#000000" d="M245.0549,-149.1278C290.778,-135.8534 361.5611,-115.3035 406.4931,-102.2587"/>
<polygon fill="#000000" stroke="#000000" points="407.5945,-105.5835 416.2221,-99.4341 405.6428,-98.8611 407.5945,-105.5835"/>
</g>
<!-- n14 -->
<g id="node7" class="node">
<title>n14</title>
<ellipse fill="none" stroke="#00ff00" cx="728.7175" cy="-162" rx="105.3052" ry="18"/>
<text text-anchor="middle" x="728.7175" y="-157.8" font-family="Times,serif" font-size="14.00" fill="#000000">src/investment_frontier.tex</text>
</g>
<!-- n14&#45;&gt;n11 -->
<g id="edge7" class="edge">
<title>n14&#45;&gt;n11</title>
<path fill="none" stroke="#000000" d="M794.4945,-147.9468C857.6892,-134.4452 952.0561,-114.2837 1011.1841,-101.6511"/>
<polygon fill="#000000" stroke="#000000" points="1012.0313,-105.0491 1021.0793,-99.5369 1010.5687,-98.2036 1012.0313,-105.0491"/>
</g>
<!-- n12 -->
<g id="node8" class="node">
<title>n12</title>
<ellipse fill="none" stroke="#00ff00" cx="961.7175" cy="-162" rx="110.133" ry="18"/>
<text text-anchor="middle" x="961.7175" y="-157.8" font-family="Times,serif" font-size="14.00" fill="#000000">src/investment_portfolio.tex</text>
</g>
<!-- n12&#45;&gt;n11 -->
<g id="edge8" class="edge">
<title>n12&#45;&gt;n11</title>
<path fill="none" stroke="#000000" d="M987.1587,-144.3868C1001.234,-134.6424 1018.8581,-122.4411 1033.8447,-112.0657"/>
<polygon fill="#000000" stroke="#000000" points="1036.0874,-114.7701 1042.3171,-106.2003 1032.1029,-109.0147 1036.0874,-114.7701"/>
</g>
<!-- n9 -->
<g id="node9" class="node">
<title>n9</title>
<ellipse fill="none" stroke="#00ff00" cx="1548.7175" cy="-162" rx="94.1888" ry="18"/>
<text text-anchor="middle" x="1548.7175" y="-157.8" font-family="Times,serif" font-size="14.00" fill="#000000">src/options_forward.tex</text>
</g>
<!-- n9&#45;&gt;n8 -->
<g id="edge11" class="edge">
<title>n9&#45;&gt;n8</title>
<path fill="none" stroke="#000000" d="M1548.7175,-143.8314C1548.7175,-136.131 1548.7175,-126.9743 1548.7175,-118.4166"/>
<polygon fill="#000000" stroke="#000000" points="1552.2176,-118.4132 1548.7175,-108.4133 1545.2176,-118.4133 1552.2176,-118.4132"/>
</g>
<!-- n6 -->
<g id="node10" class="node">
<title>n6</title>
<ellipse fill="none" stroke="#00ff00" cx="362.7175" cy="-162" rx="81.1669" ry="18"/>
<text text-anchor="middle" x="362.7175" y="-157.8" font-family="Times,serif" font-size="14.00" fill="#000000">src/tikz_bubbles.tex</text>
</g>
<!-- n6&#45;&gt;n4 -->
<g id="edge5" class="edge">
<title>n6&#45;&gt;n4</title>
<path fill="none" stroke="#000000" d="M383.5357,-144.5708C395.1167,-134.875 409.6539,-122.7044 422.0593,-112.3185"/>
<polygon fill="#000000" stroke="#000000" points="424.4302,-114.8982 429.851,-105.7951 419.9366,-109.5309 424.4302,-114.8982"/>
</g>
<!-- n10 -->
<g id="node11" class="node">
<title>n10</title>
<ellipse fill="none" stroke="#00ff00" cx="1742.7175" cy="-162" rx="81.6255" ry="18"/>
<text text-anchor="middle" x="1742.7175" y="-157.8" font-family="Times,serif" font-size="14.00" fill="#000000">src/tikz_forward.tex</text>
</g>
<!-- n10&#45;&gt;n8 -->
<g id="edge12" class="edge">
<title>n10&#45;&gt;n8</title>
<path fill="none" stroke="#000000" d="M1700.6223,-146.3771C1666.992,-133.8957 1620.2327,-116.5417 1587.5048,-104.3953"/>
<polygon fill="#000000" stroke="#000000" points="1588.4214,-101.0023 1577.8284,-100.8041 1585.9858,-107.5649 1588.4214,-101.0023"/>
</g>
<!-- n15 -->
<g id="node12" class="node">
<title>n15</title>
<ellipse fill="none" stroke="#00ff00" cx="1169.7175" cy="-162" rx="79.7134" ry="18"/>
<text text-anchor="middle" x="1169.7175" y="-157.8" font-family="Times,serif" font-size="14.00" fill="#000000">src/tikz_frontier.tex</text>
</g>
<!-- n15&#45;&gt;n11 -->
<g id="edge9" class="edge">
<title>n15&#45;&gt;n11</title>
<path fill="none" stroke="#000000" d="M1144.8069,-144.7542C1130.7414,-135.0166 1113.0073,-122.7391 1097.8983,-112.279"/>
<polygon fill="#000000" stroke="#000000" points="1099.5674,-109.1777 1089.3532,-106.3632 1095.5829,-114.9331 1099.5674,-109.1777"/>
</g>
<!-- n13 -->
<g id="node13" class="node">
<title>n13</title>
<ellipse fill="none" stroke="#00ff00" cx="1351.7175" cy="-162" rx="84.5412" ry="18"/>
<text text-anchor="middle" x="1351.7175" y="-157.8" font-family="Times,serif" font-size="14.00" fill="#000000">src/tikz_portfolio.tex</text>
</g>
<!-- n13&#45;&gt;n11 -->
<g id="edge10" class="edge">
<title>n13&#45;&gt;n11</title>
<path fill="none" stroke="#000000" d="M1296.9122,-148.2029C1245.3639,-135.2257 1168.7306,-115.9334 1118.0158,-103.166"/>
<polygon fill="#000000" stroke="#000000" points="1118.7855,-99.7506 1108.2336,-100.7034 1117.0765,-106.5388 1118.7855,-99.7506"/>
</g>
<!-- n7 -->
<g id="node14" class="node">
<title>n7</title>
<ellipse fill="none" stroke="#00ff00" cx="533.7175" cy="-162" rx="72.4807" ry="18"/>
<text text-anchor="middle" x="533.7175" y="-157.8" font-family="Times,serif" font-size="14.00" fill="#000000">src/tikzpeople.sty</text>
</g>
<!-- n7&#45;&gt;n4 -->
<g id="edge6" class="edge">
<title>n7&#45;&gt;n4</title>
<path fill="none" stroke="#000000" d="M513.1413,-144.5708C501.6949,-134.875 487.3268,-122.7044 475.0657,-112.3185"/>
<polygon fill="#000000" stroke="#000000" points="477.2572,-109.588 467.3645,-105.7951 472.7328,-114.9293 477.2572,-109.588"/>
</g>
</g>
</svg>
